
        <svg xmlns="http://www.w3.org/2000/svg" xmlns:xlink="http://www.w3.org/1999/xlink" version="1.1" width="3285.714285714286" 
        height="2871.4285714285716" viewBox="0 0 3285.714285714286 2871.4285714285716">
			
			<g transform="scale(14.285714285714286) translate(10, 10)">
				<defs id="SvgjsDefs2036"></defs><g id="SvgjsG2037" featureKey="rootContainer" transform="matrix(1,0,0,1,0,0)" fill="#f58b42"><rect y="0" height="1" width="1" opacity="0"></rect><rect y="176" width="210" height="5"></rect></g><g id="SvgjsG2038" featureKey="symbolFeature-0" transform="matrix(1.1111102634012544,0,0,1.1111102634012544,49.44501505914175,-9.777756585031359)" fill="#f58b42"><path xmlns="http://www.w3.org/2000/svg" d="M50.396,51.744c20.136,8.57,24.827,11.908,32.012,17.686C90.78,76.166,92.613,76,92.613,76  c6.24-5.484-1.655-10.793-2.297-11c-20.633-6.664-23.018-8.525-27.628-14.87c-4.744-6.53-10.693-7.801-12.279-8.03  c0-0.008,0-0.017,0-0.026c-0.33-3.309,0.256-3.571,1.423-4.095l0.048-0.02c2.495-1.119,4.108-3.558,4.108-6.211  c0-3.721-3.027-6.748-6.746-6.748c-2.652,0-5.032,1.692-6.369,4.527c-0.106,0.226-0.217,0.459-0.858,0.657  c-0.165-0.125-0.368-0.202-0.59-0.202c-0.543,0-0.983,0.44-0.983,0.983c0,0.543,0.44,0.983,0.983,0.983  c0.451,0,0.828-0.308,0.943-0.722c0.884-0.281,1.247-0.689,1.502-1.229c0.552-1.171,2.182-3.896,5.373-3.896  c3.111,0,5.645,2.533,5.645,5.646c0,2.221-1.357,4.264-3.458,5.206l-0.047,0.021c-1.53,0.685-2.45,1.304-2.072,5.169  c-1.924,0.333-7.503,1.8-11.998,7.986C32.7,56.475,30.317,58.336,9.683,65c-0.641,0.207-8.539,5.516-2.295,11  c0,0,1.833,0.166,10.207-6.57c7.181-5.775,11.843-9.107,31.952-17.666c0.137-0.068,0.284-0.1,0.446-0.1  C50.135,51.664,50.271,51.695,50.396,51.744z"></path></g><g id="SvgjsG2039" featureKey="nameFeature-0" transform="matrix(1.9557441714459327,0,0,1.9557441714459327,9.325714928846038e-7,72.78274874896866)" fill="#f58b42"><path d="M5.36 39.96 c-2.96 0 -5.36 -2.4 -5.36 -5.36 l0 -3.12 l3.8 0 l0 3.12 c0 0.88 0.72 1.56 1.56 1.56 c0.88 0 1.56 -0.68 1.56 -1.56 l0 -1.72 l-6.92 -7.16 l0 -3.16 c0 -2.96 2.4 -5.4 5.36 -5.4 s5.36 2.44 5.36 5.4 l0 2.48 l-3.8 0 l0 -2.48 c0 -0.88 -0.68 -1.56 -1.56 -1.56 c-0.84 0 -1.56 0.68 -1.56 1.56 l0 1.6 l6.92 7.2 l0 3.24 c0 2.96 -2.4 5.36 -5.36 5.36 z M18.427 17.36 c2.84 0 5.16 2.28 5.16 5.12 l0 17.48 l-3.8 0 l0 -17.48 c0 -0.72 -0.6 -1.36 -1.36 -1.36 l-1.48 0 l0 18.84 l-3.8 0 l0 -28.52 l3.8 0 l0 5.92 l1.48 0 z M31.414 40.04 c-3 0 -5.4 -2.44 -5.4 -5.4 l0 -11.88 c0 -2.96 2.4 -5.4 5.4 -5.4 c2.96 0 5.36 2.44 5.36 5.4 l0 11.88 c0 2.96 -2.4 5.4 -5.36 5.4 z M31.414 21.2 c-0.88 0 -1.56 0.72 -1.56 1.56 l0 11.88 c0 0.88 0.68 1.56 1.56 1.56 c0.84 0 1.56 -0.68 1.56 -1.56 l0 -11.88 c0 -0.84 -0.72 -1.56 -1.56 -1.56 z M43.001 39.92 l0 6.92 l-3.8 0 l0 -29.48 l5.92 0 c2.64 0 4.76 2.12 4.76 4.76 l0 13.04 c0 2.6 -2.12 4.76 -4.76 4.76 l-2.12 0 z M43.001 21.16 l0 14.96 l2.12 0 c0.56 0 0.96 -0.44 0.96 -0.96 l0 -13.04 c0 -0.52 -0.4 -0.96 -0.96 -0.96 l-2.12 0 z M61.308 21.2 l-2.72 0 l0 12.76 c0 1.2 1 2.16 2.2 2.16 l0 3.84 c-3.32 0 -6 -2.68 -6 -6 l0 -12.76 l-2.72 0 l0 -3.84 l2.72 0 l0 -6 l3.8 0 l0 6 l2.72 0 l0 3.84 z M73.05499999999999 32.76 l0 7.2 l-3.68 0 l0 -0.12 c-0.36 0.08 -0.72 0.12 -1.12 0.12 c-2.8 0 -5.04 -2.24 -5.04 -5.04 l0 -4.28 c0 -1.12 0.44 -2.16 1.24 -2.96 c0.76 -0.76 1.8 -1.2 2.92 -1.2 l1.92 0 l0 -4.32 c0 -0.6 -0.52 -1.12 -1.12 -1.12 l-0.2 0 c-0.64 0 -1.12 0.52 -1.12 1.12 l0 3.04 l-3.72 0 l0 -3.04 c0 -2.68 2.16 -4.84 4.84 -4.84 l0.2 0 c2.68 0 4.84 2.16 4.84 4.84 z M68.255 36.24 c0.6 0 1.12 -0.48 1.12 -1.08 l-0.04 -4.92 l-1.96 -0.04 c-0.16 0 -0.24 0.08 -0.32 0.12 c-0.04 0.08 -0.12 0.16 -0.12 0.32 l0 4.28 c0 0.72 0.6 1.32 1.32 1.32 z M81.162 40 l-0.8 0 c-2.68 0 -4.88 -2.16 -4.88 -4.84 l0.08 -13.12 c0 -2.68 2.2 -4.84 4.88 -4.84 l0.8 0 c2.68 0 4.88 2.16 4.88 4.84 l0 3.2 l-3.76 0 l0 -3.2 c0 -0.6 -0.48 -1.08 -1.12 -1.08 l-0.8 0 c-0.64 0 -1.12 0.48 -1.12 1.08 l-0.08 13.12 c0 0.6 0.48 1.08 1.12 1.08 l0.8 0 c0.64 0 1.12 -0.48 1.12 -1.08 l0 -3.76 l3.76 0 l0 3.76 c0 2.68 -2.16 4.84 -4.88 4.84 z M94.94900000000001 36.16 l0 3.8 l-1.16 0 c-2.88 0 -5.24 -2.36 -5.24 -5.24 l0 -23.28 l3.8 0 l0 23.28 c0 0.76 0.64 1.44 1.44 1.44 l1.16 0 z M102.13600000000001 39.92 c-2.88 0 -5.2 -2.36 -5.2 -5.24 l0 -12.48 c0 -2.64 2.16 -4.8 4.8 -4.8 l0.84 0 c2.64 0 4.8 2.16 4.8 4.8 l0 5.24 l-6.72 0.12 l0 7.12 c0 0.84 0.64 1.52 1.48 1.52 s1.52 -0.68 1.52 -1.52 l0 -2.48 l3.72 0 l0 2.48 c0 2.88 -2.36 5.24 -5.24 5.24 z M102.57600000000001 21.08 l-0.84 0 c-0.6 0 -1.08 0.52 -1.08 1.12 l0 1.68 l3 -0.08 l0 -1.6 c0 -0.6 -0.48 -1.12 -1.08 -1.12 z"></path></g>
			</g>
		</svg>
	